<?xml version="1.0" standalone="no"?>
<!DOCTYPE svg PUBLIC "-//W3C//DTD SVG 20010904//EN"
 "http://www.w3.org/TR/2001/REC-SVG-20010904/DTD/svg10.dtd">
<svg version="1.0" xmlns="http://www.w3.org/2000/svg"
 width="354.000000pt" height="354.000000pt" viewBox="0 0 354.000000 354.000000"
 preserveAspectRatio="xMidYMid meet">
<metadata>
Created by potrace 1.14, written by Peter Selinger 2001-2017
</metadata>
<g transform="translate(0.000000,354.000000) scale(0.100000,-0.100000)"
fill="#000000" stroke="none">
<path d="M565 3525 c-138 -31 -251 -92 -349 -188 -110 -109 -181 -240 -203
-375 -5 -26 -8 -569 -8 -1207 0 -938 3 -1171 13 -1215 8 -30 34 -98 59 -150
38 -80 59 -107 132 -180 97 -97 193 -153 321 -189 74 -21 87 -21 1240 -21
1096 0 1169 2 1235 19 248 64 434 244 509 490 l26 85 -1 1170 c0 1119 -1 1174
-19 1244 -52 199 -200 377 -386 464 -142 66 -51 62 -1339 64 -956 2 -1181 0
-1230 -11z"/>
</g>
</svg>
